<svg xmlns="http://www.w3.org/2000/svg" xmlns:xlink="http://www.w3.org/1999/xlink" version="1.1" x="0px" y="0px" viewBox="0 0 52 65" enable-background="new 0 0 52 52" xml:space="preserve"><g><g><rect x="17.0034008" y="2.1807001" width="18.0033989" height="2"/></g><g><path d="M21.0067997,18.5946999L10.5913,8.1787004l6.358901-6.3594003l0.7391987,0.6347998L27.4193993,12.1826    L21.0067997,18.5946999z M13.4194002,8.1787004l7.5873995,7.5878992L24.591301,12.1826l-7.5879002-7.5888L13.4194002,8.1787004z"/></g><g><path d="M31.0034008,18.5946999L24.591301,12.1826L34.5381012,2.2354l0.8827972-0.0225L35.7685013,2.5283l5.650898,5.6504002    L31.0034008,18.5946999z M27.4193993,12.1826l3.5840015,3.5839996l7.5879002-7.5878992l-3.5844994-3.5840006L27.4193993,12.1826z"/></g><g><path d="M44,50.1806984H8c-1.654295,0-2.9999995-1.3456993-2.9999995-3v-37C5.0000005,8.5263996,6.345705,7.1806998,8,7.1806998    h4.0053005v2.0000005H8c-0.5512948,0-0.9999995,0.4481993-0.9999995,1v37c0,0.5517006,0.4487047,1,0.9999995,1h36    c0.5512009,0,1-0.4482994,1-1v-37c0-0.5518007-0.4487991-1-1-1h-3.9956017V7.1806998H44c1.6543007,0,3,1.3456998,3,3.0000005v37    C47,48.8349991,45.6543007,50.1806984,44,50.1806984z"/></g><g><rect x="25" y="12.1826" width="2" height="36.9981003"/></g><g><rect x="31" y="24.1807003" width="11" height="2"/></g><g><rect x="21" y="22.1807003" width="2" height="2"/></g><g><rect x="21" y="29.1807003" width="2" height="2"/></g><g><rect x="21" y="36.1806984" width="2" height="2"/></g><g><rect x="21" y="43.1806984" width="2" height="2"/></g></g><text x="0" y="67" fill="#000000" font-size="5px" font-weight="bold" font-family="'Helvetica Neue', Helvetica, Arial-Unicode, Arial, Sans-serif">Created by DinosoftLabs</text><text x="0" y="72" fill="#000000" font-size="5px" font-weight="bold" font-family="'Helvetica Neue', Helvetica, Arial-Unicode, Arial, Sans-serif">from the Noun Project</text></svg>