<svg xmlns="http://www.w3.org/2000/svg" version="1.1" viewBox="-5.0 -10.0 110.0 135.0">
 <path d="m49.898 23.527c-14.598 0-26.473 11.875-26.473 26.473s11.875 26.469 26.473 26.469c14.598 0 26.469-11.875 26.469-26.469s-11.875-26.473-26.469-26.473zm0 50.445c-13.219 0-23.973-10.754-23.973-23.969 0-13.219 10.754-23.973 23.973-23.973s23.969 10.754 23.969 23.973-10.754 23.969-23.969 23.969zm-10.992-17.605c0.34766 0.59766 0.14453 1.3633-0.45312 1.7109-0.19922 0.11328-0.41406 0.17188-0.62891 0.17188-0.42969 0-0.84766-0.22266-1.082-0.62109-1.3438-2.3086-2.0508-4.9453-2.0508-7.625 0-8.3828 6.8203-15.199 15.207-15.199 3.2617 0 6.375 1.0195 8.9961 2.9492 0.55469 0.41016 0.67578 1.1914 0.26562 1.7461s-1.1914 0.67578-1.7461 0.26562c-2.1914-1.6094-4.7891-2.4648-7.5156-2.4648-7.0078 0-12.707 5.6992-12.707 12.699 0 2.2422 0.59375 4.4414 1.7148 6.3672zm24.145-13.992c1.3438 2.3086 2.0508 4.9414 2.0508 7.6211 0 8.3828-6.8203 15.207-15.199 15.207-3.2656 0-6.3789-1.0195-9-2.9492-0.55469-0.41016-0.67578-1.1914-0.26562-1.7461 0.41016-0.55469 1.1914-0.67578 1.7461-0.26562 2.1914 1.6094 4.7891 2.4648 7.5195 2.4648 7.0039 0 12.699-5.6992 12.699-12.707 0-2.2383-0.59375-4.4375-1.7148-6.3633-0.34766-0.59766-0.14453-1.3633 0.45312-1.7109 0.59766-0.34766 1.3633-0.14453 1.7109 0.45312zm25.305-26.16h-0.011719c-2.0625 0-6.6562 2.9688-8.0078 9.8711-1.6328 8.3711-1.625 16.84-1.6133 25.801v1.5977c0.011719 1.1172 0.92578 2.0234 2.0391 2.0234h2.1523l-2.3281 23.09c-0.14063 1.3594 0.27734 2.6562 1.1719 3.6445 0.88672 0.98047 2.1719 1.543 3.5273 1.543 2.6836 0 4.7109-2.1758 4.7109-5.0625v-60.902c0-0.87109-0.73047-1.5938-1.6406-1.6094zm-7.1328 36.793v-1.125c-0.011718-8.8398-0.019531-17.188 1.5664-25.32 0.88281-4.5078 3.3438-6.7617 4.707-7.5312v33.977zm4.0664 28.281c-0.66016 0-1.2539-0.25781-1.6758-0.71875-0.41406-0.46094-0.60547-1.0703-0.53906-1.7188l2.3555-23.34h2.0703v23.215c0 1.2344-0.69141 2.5625-2.2109 2.5625zm-65.379-44.328c1.5156-0.39844 2.9219-1.2305 3.9727-2.3867 1.3672-1.5039 2.0156-3.3906 1.832-5.3086l-1.125-11.918c-0.066406-0.6875-0.67188-1.1914-1.3633-1.1289-0.6875 0.066406-1.1914 0.67578-1.1289 1.3633l1.0703 11.344h-4.0508v-11.461c0-0.69141-0.55859-1.25-1.25-1.25-0.69141 0-1.25 0.55859-1.25 1.25v11.461h-4.043l1.1211-11.34c0.066407-0.6875-0.43359-1.3008-1.1211-1.3672-0.68359-0.066406-1.3008 0.43359-1.3672 1.1211l-1.1797 11.918c-0.19141 1.9062 0.44922 3.7773 1.8047 5.2734 1.0625 1.1758 2.4805 2.0195 4 2.4258l-2.6758 41.734c-0.089844 1.375 0.36328 2.6641 1.2695 3.6328 0.88281 0.94141 2.1055 1.4609 3.4375 1.4609 1.3359 0 2.5508-0.51953 3.4375-1.4609 0.90625-0.96484 1.3594-2.2578 1.2734-3.6367l-2.6758-41.73zm-6.2148-4.1094c-0.32031-0.35547-0.66797-0.83594-0.90234-1.4297h10.164c-0.20312 0.52344-0.51172 1.0195-0.92188 1.4688-1.0469 1.1523-2.6016 1.8398-4.1562 1.8398-1.5312 0-3.1367-0.71875-4.1836-1.8789zm5.793 47.766c-0.40625 0.43359-0.98047 0.67187-1.6133 0.67187s-1.2109-0.23828-1.6133-0.67187c-0.42969-0.45703-0.64062-1.082-0.59766-1.7617l2.2148-34.559 2.2148 34.555c0.042969 0.67969-0.17188 1.3086-0.60156 1.7656z"/>
<text x="0.0" y="117.5" font-size="5.0" font-weight="bold" font-family="Arbeit Regular, Helvetica, Arial-Unicode, Arial, Sans-serif" fill="#000000">Created by pojok_icon</text><text x="0.0" y="122.5" font-size="5.0" font-weight="bold" font-family="Arbeit Regular, Helvetica, Arial-Unicode, Arial, Sans-serif" fill="#000000">from Noun Project</text></svg>